<?xml version="1.0" encoding="UTF-8" standalone="no"?>
<!-- Created with Inkscape (http://www.inkscape.org/) -->

<svg
   width="140mm"
   height="139.647mm"
   viewBox="0 0 140 139.64701"
   version="1.1"
   id="svg1"
   inkscape:version="1.3.2 (091e20e, 2023-11-25, custom)"
   sodipodi:docname="Logo_Dark_no_Text.svg"
   xmlns:inkscape="http://www.inkscape.org/namespaces/inkscape"
   xmlns:sodipodi="http://sodipodi.sourceforge.net/DTD/sodipodi-0.dtd"
   xmlns="http://www.w3.org/2000/svg"
   xmlns:svg="http://www.w3.org/2000/svg">
  <sodipodi:namedview
     id="namedview1"
     pagecolor="#ffffff"
     bordercolor="#000000"
     borderopacity="0.25"
     inkscape:showpageshadow="2"
     inkscape:pageopacity="0.0"
     inkscape:pagecheckerboard="0"
     inkscape:deskcolor="#d1d1d1"
     inkscape:document-units="mm"
     showgrid="false"
     inkscape:zoom="0.72426347"
     inkscape:cx="636.5087"
     inkscape:cy="263.02583"
     inkscape:window-width="1920"
     inkscape:window-height="1009"
     inkscape:window-x="-8"
     inkscape:window-y="-8"
     inkscape:window-maximized="1"
     inkscape:current-layer="layer1">
    <inkscape:grid
       id="grid5"
       units="mm"
       originx="-7.5003095"
       originy="2.4999571"
       spacingx="0.99999998"
       spacingy="1"
       empcolor="#0099e5"
       empopacity="0.30196078"
       color="#0099e5"
       opacity="0.14901961"
       empspacing="5"
       dotted="false"
       gridanglex="30"
       gridanglez="30"
       visible="false" />
    <inkscape:page
       x="0"
       y="0"
       width="140"
       height="139.64702"
       id="page13"
       margin="0"
       bleed="0" />
  </sodipodi:namedview>
  <defs
     id="defs1" />
  <g
     inkscape:label="Layer 1"
     inkscape:groupmode="layer"
     id="layer1"
     transform="translate(-7.1148081,1.8659179)">
    <g
       id="g9"
       inkscape:label="Logo"
       transform="translate(14.613911,21.707105)">
      <path
         id="path3"
         style="color:#000000;display:inline;fill:#000000;stroke-linejoin:round;-inkscape-stroke:none"
         d="m 62.499823,-2.4990372 a 2.500245,2.500245 0 0 0 -1.240234,0.3291789 L 8.7599508,27.829861 A 2.500245,2.500245 0 0 0 8.991978,32.286953 L 31.68775,42.28686 33.703131,37.712979 15.542999,29.710883 62.499823,2.8789291 100.30682,24.483295 v -4.787821 c 0,-0.311699 0.043,-0.613397 0.11627,-0.903821 L 63.740057,-2.1698583 A 2.500245,2.500245 0 0 0 62.499823,-2.4990372 Z M 102.80641,20.153327 v 5.758305 l 2.5001,1.428336 V 21.58218 Z m 5.00021,2.85719 v 5.758305 l 1.66605,0.95188 -1.66605,0.740523 v 5.472534 l 8.2088,-3.648356 a 2.500245,2.500245 0 0 0 0.22479,-4.455542 z m -2.50011,8.561751 -2.5001,1.111043 v 5.472535 l 2.5001,-1.111044 z m -4.99969,2.222087 -8.822203,3.920691 2.030884,4.570263 6.791319,-3.01842 z" />
      <g
         id="g7">
        <rect
           style="display:inline;fill:#ffffff;fill-opacity:0;stroke:#000000;stroke-width:5;stroke-dasharray:none;stroke-opacity:1"
           id="rect1"
           width="60"
           height="60"
           x="-92.5"
           y="-92.5"
           ry="12.5"
           transform="scale(-1)" />
        <path
           style="fill:#ffffff;fill-opacity:1;stroke:#000000;stroke-width:5;stroke-dasharray:none;stroke-opacity:1"
           d="M 30,47.5 H 94.84365"
           id="path6" />
      </g>
      <g
         id="g6">
        <rect
           style="fill:none;stroke:#000000;stroke-width:4.99999;stroke-dasharray:none;stroke-opacity:1"
           id="rect3"
           width="5"
           height="5"
           x="-52.499996"
           y="-62.499996"
           ry="0.091328412"
           transform="scale(-1)" />
        <rect
           style="fill:none;stroke:#000000;stroke-width:4.99999;stroke-dasharray:none;stroke-opacity:1"
           id="rect3-5"
           width="5"
           height="5"
           x="-67.499992"
           y="-62.533329"
           ry="0.091328412"
           transform="scale(-1)" />
        <rect
           style="fill:none;stroke:#000000;stroke-width:4.99999;stroke-dasharray:none;stroke-opacity:1"
           id="rect3-8"
           width="5"
           height="5"
           x="-82.499992"
           y="-62.533329"
           ry="0.091328412"
           transform="scale(-1)" />
      </g>
      <g
         id="g6-7"
         transform="translate(-1.1920929e-6,14.999999)">
        <rect
           style="fill:none;stroke:#000000;stroke-width:4.99999;stroke-dasharray:none;stroke-opacity:1"
           id="rect3-0"
           width="5"
           height="5"
           x="-52.499996"
           y="-62.499996"
           ry="0.091328412"
           transform="scale(-1)" />
        <rect
           style="fill:none;stroke:#000000;stroke-width:4.99999;stroke-dasharray:none;stroke-opacity:1"
           id="rect3-5-5"
           width="5"
           height="5"
           x="-67.499992"
           y="-62.533329"
           ry="0.091328412"
           transform="scale(-1)" />
        <rect
           style="fill:none;stroke:#000000;stroke-width:4.99999;stroke-dasharray:none;stroke-opacity:1"
           id="rect3-8-9"
           width="5"
           height="5"
           x="-82.499992"
           y="-62.533329"
           ry="0.091328412"
           transform="scale(-1)" />
      </g>
      <g
         id="g8">
        <path
           style="fill:#ffffff;fill-opacity:1;stroke:#000000;stroke-width:5;stroke-dasharray:none;stroke-opacity:1"
           d="M 77.5,25 V 40"
           id="path7" />
        <path
           style="fill:#ffffff;fill-opacity:1;stroke:#000000;stroke-width:5;stroke-dasharray:none;stroke-opacity:1"
           d="M 47.5,25 V 40"
           id="path7-9" />
        <path
           style="fill:#ffffff;fill-opacity:1;stroke:#000000;stroke-width:5;stroke-dasharray:none;stroke-opacity:1"
           d="M 62.5,25 V 40"
           id="path7-9-1" />
      </g>
      <g
         id="rect11"
         transform="matrix(0.76751581,0,0,1,24.191653,0)">
        <path
           style="color:#000000;display:inline;fill:#000000;stroke-linecap:round;stroke-linejoin:round;-inkscape-stroke:none"
           d="m 104.0572,17.196167 c 1.385,0 2.5,1.115 2.5,2.5 v 47.7 c 0,1.385 -1.115,2.5 -2.5,2.5 -1.385,0 -2.5,-1.115 -2.5,-2.5 v -47.7 c 0,-1.385 1.115,-2.5 2.5,-2.5 z"
           id="path4"
           sodipodi:nodetypes="sssssss" />
      </g>
    </g>
  </g>
</svg>
