<?xml version="1.0" encoding="UTF-8" standalone="no"?>
<!-- Created with Inkscape (http://www.inkscape.org/) -->

<svg
   width="631.22998mm"
   height="132.739mm"
   viewBox="0 0 631.22997 132.73904"
   version="1.1"
   id="svg1"
   inkscape:version="1.3.2 (091e20e, 2023-11-25, custom)"
   sodipodi:docname="Logo.svg"
   xmlns:inkscape="http://www.inkscape.org/namespaces/inkscape"
   xmlns:sodipodi="http://sodipodi.sourceforge.net/DTD/sodipodi-0.dtd"
   xmlns="http://www.w3.org/2000/svg"
   xmlns:svg="http://www.w3.org/2000/svg">
  <sodipodi:namedview
     id="namedview1"
     pagecolor="#ffffff"
     bordercolor="#000000"
     borderopacity="0.25"
     inkscape:showpageshadow="2"
     inkscape:pageopacity="0.0"
     inkscape:pagecheckerboard="0"
     inkscape:deskcolor="#d1d1d1"
     inkscape:document-units="mm"
     showgrid="false"
     inkscape:zoom="0.36213173"
     inkscape:cx="1413.8501"
     inkscape:cy="216.77195"
     inkscape:window-width="1920"
     inkscape:window-height="1009"
     inkscape:window-x="-8"
     inkscape:window-y="-8"
     inkscape:window-maximized="1"
     inkscape:current-layer="g1"
     showguides="false">
    <inkscape:grid
       id="grid5"
       units="mm"
       originx="-38.616253"
       originy="-18.117905"
       spacingx="0.99999998"
       spacingy="1"
       empcolor="#0099e5"
       empopacity="0.30196078"
       color="#0099e5"
       opacity="0.14901961"
       empspacing="5"
       dotted="false"
       gridanglex="30"
       gridanglez="30"
       visible="false" />
    <inkscape:page
       x="0"
       y="0"
       width="631.22992"
       height="132.73904"
       id="page13"
       margin="0"
       bleed="0" />
  </sodipodi:namedview>
  <defs
     id="defs1" />
  <g
     inkscape:label="Layer 1"
     inkscape:groupmode="layer"
     id="layer1"
     transform="translate(-38.230766,-18.751943)">
    <g
       id="g1"
       transform="translate(29.999849,20.000171)">
      <path
         style="font-weight:600;font-size:112.889px;font-family:'DM Sans';-inkscape-font-specification:'DM Sans Semi-Bold';stroke-width:2.5;stroke-linejoin:round;paint-order:fill markers stroke"
         d="m 172.82498,98.009713 q -8.57957,0 -15.24002,-3.048003 -6.66045,-3.048003 -10.38578,-8.692453 -3.72534,-5.64445 -3.83823,-13.433791 h 14.3369 q 0,3.951115 1.80623,7.112007 1.91911,3.048003 5.19289,4.854227 3.38667,1.806224 8.12801,1.806224 4.064,0 6.99912,-1.241779 3.048,-1.354668 4.62845,-3.725337 1.69333,-2.483558 1.69333,-5.757339 0,-3.725337 -1.80622,-6.096006 -1.69334,-2.483558 -4.74134,-4.176893 -3.048,-1.693335 -6.99912,-2.935114 -3.95111,-1.354668 -8.35379,-2.822225 -9.36978,-3.160892 -14.11112,-8.015119 -4.74134,-4.967116 -4.74134,-13.208013 0,-6.886229 3.27378,-11.853345 3.27378,-4.967116 9.14401,-7.676452 5.98312,-2.822225 13.77246,-2.822225 7.90223,0 13.77246,2.822225 5.98311,2.822225 9.36978,7.90223 3.49956,4.967116 3.61245,11.966234 H 183.8881 q -0.11289,-2.935114 -1.58045,-5.418672 -1.46755,-2.596447 -4.28978,-4.176893 -2.70933,-1.693335 -6.66045,-1.693335 -3.38667,-0.112889 -6.096,1.12889 -2.59645,1.12889 -4.1769,3.38667 -1.46755,2.144891 -1.46755,5.418672 0,3.160892 1.35466,5.305783 1.46756,2.032002 4.1769,3.499559 2.70933,1.354668 6.32178,2.596447 3.61245,1.241779 7.90223,2.709336 5.87023,1.919113 10.61157,4.741338 4.85422,2.709336 7.67645,7.112007 2.82222,4.402671 2.82222,11.401789 0,6.096006 -3.16089,11.401789 -3.16089,5.192894 -9.2569,8.466675 -6.096,3.160892 -15.24001,3.160892 z m 65.13696,-1.354668 q -5.75734,0 -10.04712,-1.806224 -4.17689,-1.806224 -6.54756,-5.983117 -2.37067,-4.176893 -2.37067,-11.2889 V 51.160778 h -9.70845 V 39.758989 h 9.70845 l 1.58045,-15.014237 h 11.96623 v 15.014237 h 15.46579 v 11.401789 h -15.46579 v 26.416026 q 0,4.289782 1.80623,5.983117 1.91911,1.580446 6.32178,1.580446 h 6.99912 v 11.514678 z m 43.91377,1.354668 q -6.88623,0 -11.85334,-2.709336 -4.85423,-2.822225 -7.45068,-8.353786 -2.59645,-5.64445 -2.59645,-13.885347 V 39.758989 h 13.54668 v 31.947587 q 0,7.337785 3.04801,11.176011 3.16089,3.725337 9.48267,3.725337 4.06401,0 7.2249,-1.919113 3.27378,-1.919113 5.08,-5.531561 1.91912,-3.725337 1.91912,-9.03112 V 39.758989 h 13.54668 v 56.896056 h -11.96624 l -1.016,-9.482676 v 0 q -2.59644,4.967116 -7.56356,7.90223 -4.85423,2.935114 -11.40179,2.935114 z m 72.36186,0 q -7.90223,0 -14.11112,-3.838226 -6.2089,-3.838226 -9.70846,-10.611566 -3.38667,-6.77334 -3.38667,-15.352904 0,-8.579564 3.49956,-15.240015 3.49956,-6.77334 9.70845,-10.611566 6.32179,-3.951115 14.22402,-3.951115 6.43467,0 11.17601,2.483558 4.85423,2.370669 7.67645,6.77334 V 15.374965 h 13.54668 v 81.28008 h -12.19201 l -1.35467,-8.240897 v 0 q -1.80622,2.483558 -4.40267,4.741338 -2.59645,2.144891 -6.20889,3.499559 -3.61245,1.354668 -8.46668,1.354668 z m 2.82223,-11.740456 q 4.85422,0 8.57956,-2.25778 3.72534,-2.370669 5.75734,-6.434673 2.032,-4.064004 2.032,-9.369787 0,-5.305783 -2.032,-9.369787 -2.032,-4.064004 -5.75734,-6.321784 -3.72534,-2.25778 -8.57956,-2.25778 -4.62845,0 -8.35379,2.25778 -3.72534,2.25778 -5.87023,6.321784 -2.032,4.064004 -2.032,9.369787 0,5.305783 2.032,9.369787 2.14489,4.064004 5.87023,6.434673 3.72534,2.25778 8.35379,2.25778 z m 51.70316,35.221363 13.88535,-31.157359 h -3.38667 L 396.57095,39.758989 h 14.78846 l 16.93335,38.608038 v 0 L 444.323,39.758989 h 14.3369 l -35.56003,81.731631 z m 95.27833,-23.480907 q -11.74045,0 -20.32002,-5.080005 -8.46667,-5.192894 -13.09512,-14.336903 -4.51556,-9.256898 -4.51556,-21.336021 0,-12.192012 4.51556,-21.336021 4.62845,-9.256898 13.09512,-14.449792 8.57957,-5.192894 20.32002,-5.192894 14.11113,0 23.02936,6.999118 8.91823,6.886229 11.2889,19.529797 H 523.4582 q -1.58045,-6.660451 -6.43467,-10.498677 -4.85423,-3.838226 -13.09513,-3.838226 -7.45067,0 -12.86934,3.499559 -5.30579,3.38667 -8.2409,9.934232 -2.82222,6.434673 -2.82222,15.352904 0,8.918231 2.82222,15.352904 2.93511,6.321784 8.2409,9.821343 5.41867,3.38667 12.86934,3.38667 8.2409,0 13.09513,-3.499559 4.85422,-3.612448 6.43467,-9.934232 h 14.90135 q -2.25778,11.966234 -11.2889,18.852463 -8.91823,6.77334 -23.02936,6.77334 z m 66.04012,0 q -6.99912,0 -11.62757,-2.370669 -4.62845,-2.370669 -6.88623,-6.321784 -2.25778,-3.951115 -2.25778,-8.579564 0,-5.418672 2.70934,-9.369787 2.82222,-3.951115 8.24089,-6.096006 5.41867,-2.25778 13.3209,-2.25778 h 14.33691 q 0,-4.51556 -1.24178,-7.450674 -1.24178,-3.048003 -3.83823,-4.51556 -2.59644,-1.467557 -6.66045,-1.467557 -4.62845,0 -7.90223,2.144891 -3.27378,2.032002 -4.064,6.321784 h -13.3209 q 0.67733,-6.096006 4.064,-10.385788 3.38667,-4.402671 8.91823,-6.77334 5.64445,-2.483558 12.3049,-2.483558 8.01512,0 13.65957,2.822225 5.64445,2.709336 8.57956,7.90223 3.04801,5.080005 3.04801,12.304901 v 35.221368 h -11.51468 l -1.35467,-9.144009 v 0 q -1.12889,2.25778 -2.93511,4.176893 -1.69334,1.919113 -3.95112,3.38667 -2.25778,1.354668 -5.19289,2.144891 -2.82223,0.790223 -6.43467,0.790223 z m 3.048,-10.724455 q 3.27378,0 5.75734,-1.12889 2.59644,-1.241779 4.40267,-3.38667 1.91911,-2.25778 2.93511,-4.967116 1.016,-2.709336 1.35467,-5.757339 v -0.225778 h -12.53068 q -3.95111,0 -6.54756,1.016001 -2.59645,0.903112 -3.72534,2.709336 -1.12889,1.806224 -1.12889,4.176893 0,2.370669 1.12889,4.064004 1.12889,1.693335 3.27378,2.596447 2.14489,0.903112 5.08001,0.903112 z m 42.78486,9.369787 v -81.28008 h 13.54668 v 81.28008 z"
         id="text1"
         aria-label="StudyCal" />
      <g
         id="g9"
         inkscape:label="Logo"
         transform="translate(10.729108,11.25096)">
        <path
           id="path3"
           style="color:#000000;display:inline;fill:#000000;stroke-linejoin:round;-inkscape-stroke:none"
           d="m 62.499823,-2.4990372 a 2.500245,2.500245 0 0 0 -1.240234,0.3291789 L 8.7599508,27.829861 A 2.500245,2.500245 0 0 0 8.991978,32.286953 L 31.68775,42.28686 33.703131,37.712979 15.542999,29.710883 62.499823,2.8789291 100.30682,24.483295 v -4.787821 c 0,-0.311699 0.043,-0.613397 0.11627,-0.903821 L 63.740057,-2.1698583 A 2.500245,2.500245 0 0 0 62.499823,-2.4990372 Z M 102.80641,20.153327 v 5.758305 l 2.5001,1.428336 V 21.58218 Z m 5.00021,2.85719 v 5.758305 l 1.66605,0.95188 -1.66605,0.740523 v 5.472534 l 8.2088,-3.648356 a 2.500245,2.500245 0 0 0 0.22479,-4.455542 z m -2.50011,8.561751 -2.5001,1.111043 v 5.472535 l 2.5001,-1.111044 z m -4.99969,2.222087 -8.822203,3.920691 2.030884,4.570263 6.791319,-3.01842 z" />
        <g
           id="g7">
          <rect
             style="display:inline;fill:#ffffff;fill-opacity:0;stroke:#000000;stroke-width:5;stroke-dasharray:none;stroke-opacity:1"
             id="rect1"
             width="60"
             height="60"
             x="-92.5"
             y="-92.5"
             ry="12.5"
             transform="scale(-1)" />
          <path
             style="fill:#ffffff;fill-opacity:1;stroke:#000000;stroke-width:5;stroke-dasharray:none;stroke-opacity:1"
             d="M 30,47.5 H 94.84365"
             id="path6" />
        </g>
        <g
           id="g6">
          <rect
             style="fill:none;stroke:#000000;stroke-width:4.99999;stroke-dasharray:none;stroke-opacity:1"
             id="rect3"
             width="5"
             height="5"
             x="-52.499996"
             y="-62.499996"
             ry="0.091328412"
             transform="scale(-1)" />
          <rect
             style="fill:none;stroke:#000000;stroke-width:4.99999;stroke-dasharray:none;stroke-opacity:1"
             id="rect3-5"
             width="5"
             height="5"
             x="-67.499992"
             y="-62.533329"
             ry="0.091328412"
             transform="scale(-1)" />
          <rect
             style="fill:none;stroke:#000000;stroke-width:4.99999;stroke-dasharray:none;stroke-opacity:1"
             id="rect3-8"
             width="5"
             height="5"
             x="-82.499992"
             y="-62.533329"
             ry="0.091328412"
             transform="scale(-1)" />
        </g>
        <g
           id="g6-7"
           transform="translate(-1.1920929e-6,14.999999)">
          <rect
             style="fill:none;stroke:#000000;stroke-width:4.99999;stroke-dasharray:none;stroke-opacity:1"
             id="rect3-0"
             width="5"
             height="5"
             x="-52.499996"
             y="-62.499996"
             ry="0.091328412"
             transform="scale(-1)" />
          <rect
             style="fill:none;stroke:#000000;stroke-width:4.99999;stroke-dasharray:none;stroke-opacity:1"
             id="rect3-5-5"
             width="5"
             height="5"
             x="-67.499992"
             y="-62.533329"
             ry="0.091328412"
             transform="scale(-1)" />
          <rect
             style="fill:none;stroke:#000000;stroke-width:4.99999;stroke-dasharray:none;stroke-opacity:1"
             id="rect3-8-9"
             width="5"
             height="5"
             x="-82.499992"
             y="-62.533329"
             ry="0.091328412"
             transform="scale(-1)" />
        </g>
        <g
           id="g8">
          <path
             style="fill:#ffffff;fill-opacity:1;stroke:#000000;stroke-width:5;stroke-dasharray:none;stroke-opacity:1"
             d="M 77.5,25 V 40"
             id="path7" />
          <path
             style="fill:#ffffff;fill-opacity:1;stroke:#000000;stroke-width:5;stroke-dasharray:none;stroke-opacity:1"
             d="M 47.5,25 V 40"
             id="path7-9" />
          <path
             style="fill:#ffffff;fill-opacity:1;stroke:#000000;stroke-width:5;stroke-dasharray:none;stroke-opacity:1"
             d="M 62.5,25 V 40"
             id="path7-9-1" />
        </g>
        <g
           id="rect11"
           transform="matrix(0.76751581,0,0,1,24.191653,0)">
          <path
             style="color:#000000;display:inline;fill:#000000;stroke-linecap:round;stroke-linejoin:round;-inkscape-stroke:none"
             d="m 104.0572,17.196167 c 1.385,0 2.5,1.115 2.5,2.5 v 47.7 c 0,1.385 -1.115,2.5 -2.5,2.5 -1.385,0 -2.5,-1.115 -2.5,-2.5 v -47.7 c 0,-1.385 1.115,-2.5 2.5,-2.5 z"
             id="path4"
             sodipodi:nodetypes="sssssss" />
        </g>
      </g>
    </g>
  </g>
</svg>
